<svg viewBox="0 0 416 417" version="1.1" xmlns="http://www.w3.org/2000/svg" xml:space="preserve" clip-rule="evenodd" stroke-miterlimit="2"><title>logo</title><g fill-rule="evenodd" stroke-linejoin="round" class="nc-icon-wrapper" fill="#595757"><path id="Artboard11" fill="none" d="M0 0h415.782v416.668H0z"/><clipPath id="_clip1"><path d="M0 0h415.782v416.668H0z"/></clipPath><g clip-path="url(#_clip1)"><path d="M362.045 169.424v77.029h-25.617v-51.358h-25.625v25.683h-25.617v-25.683h-19.812v-25.671h96.671zm-102.479 77.029h-25.617v-77.029h25.617v77.029zm-52.28 51.238h-77.091v-76.913h45.404v25.7h-19.704v25.596h25.7v-76.937h-25.7v-25.704h51.391v128.258zM85.591 195.137v-25.704h19.866v-25.7H79.761v128.341H54.057V118.028h77.104v77.109h-45.57zM1.007 415.858H415.42V-.134H1.007v415.992z" fill-rule="nonzero"/></g></g></svg>