<?xml version="1.0" encoding="utf-8"?>
<!-- Generator: Adobe Illustrator 25.4.1, SVG Export Plug-In . SVG Version: 6.00 Build 0)  -->
<svg version="1.1" id="图层_1" xmlns="http://www.w3.org/2000/svg" xmlns:xlink="http://www.w3.org/1999/xlink" x="0px" y="0px"
	 viewBox="0 0 585 346" style="enable-background:new 0 0 585 346;" xml:space="preserve">
<style type="text/css">
	.st0{fill:none;}
	.st1{clip-path:url(#SVGID_00000126313179511747295880000005535460674740145845_);}
	.st2{fill:#B3B3B3;}
	.st3{fill-rule:evenodd;clip-rule:evenodd;fill:#B3B3B3;}
</style>
<g>
	<path id="Artboard14" class="st0" d="M0,0h584.9v345.5H0V0z"/>
	<g>
		<defs>
			<rect id="SVGID_1_" y="0" width="584.9" height="345.5"/>
		</defs>
		<clipPath id="SVGID_00000155859267263411617570000016342778439477337498_">
			<use xlink:href="#SVGID_1_"  style="overflow:visible;"/>
		</clipPath>
		<g style="clip-path:url(#SVGID_00000155859267263411617570000016342778439477337498_);">
			<path class="st2" d="M584.3,170.8v-28.6c0-4.7-1.1-9-4.9-12.8c-2.4-2.4-6.5-3.8-10.7-3.8c-5.2,0-8.7,1.3-12.6,4.7
				c-2.9-3.3-6.5-4.7-10.9-4.7c-3.6,0-7.6,1.4-10.4,4.2v-3.7h-13.3v44.7h13.6v-26.7c0-5.2,3.7-6.1,5.5-6.1c1.8,0,5.5,1,5.5,6.1v26.7
				h13.6v-26.7c0-5.2,3.7-6.1,5.5-6.1c1.8,0,5.5,1,5.5,6.1v26.7L584.3,170.8L584.3,170.8z"/>
			<path class="st2" d="M497.6,170.8v-44.7H484v26.7c0,5.1-3.7,6.1-5.5,6.1s-5.5-1-5.5-6.1v-26.7h-13.6v28.6c0,4.7,0.7,9,4.5,12.8
				c2.4,2.4,5.8,3.8,10,3.8c3.6,0,7.6-1.4,10.4-4.2v3.7L497.6,170.8L497.6,170.8z"/>
			<path class="st2" d="M411.2,143.8c0-1.1,0.2-2.3,0.8-3.5c0.8-1.9,2.7-3.5,5.9-3.5s5.1,1.6,5.9,3.5c0.6,1.2,0.7,2.4,0.7,3.5H411.2
				z M438,146.8c0-11.7-7.1-21.2-20.1-21.2c-11.7,0-20,8.2-20,22.8c0,19.3,11.4,22.8,21.3,22.8c8.3,0,12.8-2.5,17.4-7.1l-8.1-8.1
				c-2.4,2.4-4.5,3.7-9.2,3.7c-5.1,0-7.9-3.3-7.9-7H438V146.8z"/>
			<path class="st2" d="M378.9,156.2c0-7.1-4.1-12.7-13.5-13.6l-6.9-0.7c-3.1-0.3-2.9-2-2.9-2.5c0-1,1.1-2.6,4.4-2.6
				c3.5,0,7.2,0.4,9.5,2.7l8.4-8.4c-4.4-4.4-10.3-5.5-17.6-5.5c-8.9,0-17.8,4.9-17.8,14.8c0,8.7,5.2,12.2,13,13l6.9,0.7
				c2.7,0.2,3.2,1.6,3.2,2.8c0,2.3-3.8,2.9-5.8,2.9c-2.3,0-7.1,0-10.9-3.7l-8.8,8.8c6.1,6.1,12.7,6.5,19.4,6.5
				C369.9,171.3,378.9,166.7,378.9,156.2"/>
			<path class="st2" d="M320.5,170.8v-44.7h-13.6v26.7c0,5.1-3.7,6.1-5.5,6.1s-5.5-1-5.5-6.1v-26.7h-13.6v28.6c0,4.7,0.7,9,4.5,12.8
				c2.4,2.4,5.8,3.8,10,3.8c3.6,0,7.6-1.4,10.4-4.2v3.7L320.5,170.8L320.5,170.8z"/>
			<path class="st2" d="M258,170.8v-59.1h-14.3l-13.3,26.1l-13.3-26.1h-14.3v59.1h14.5v-28.3l8.4,14.6h9.3l8.4-14.6v28.3H258z"/>
			<path class="st2" d="M148,170.8v-11.5h-4.3c-1.8,0-2.7-1-2.7-2.7v-18.3h7.1v-10.5h-7.1v-12.8h-13.6v12.8h-4.1v10.5h4.1v19.3
				c0,6.1,4,13.2,13.9,13.2L148,170.8L148,170.8z"/>
			<path class="st2" d="M107.5,129.8c-3.1-3.1-6.1-4.2-10.5-4.2c-4.7,0-8.6,2.2-10.6,4.2v-3.7H73.3v44.7h13.6v-26.7
				c0-5.1,3.7-6.1,5.5-6.1c2.3,0,3.6,1,4.9,2.3L107.5,129.8L107.5,129.8z"/>
			<path class="st2" d="M22.5,149.9l5.3-15.8l5,15.8C32.8,149.9,22.5,149.9,22.5,149.9z M33,111.7H21.8L0.3,170.8h15.2l2.9-8.8h18.2
				l2.7,8.8h15.2L33,111.7z"/>
			<path class="st2" d="M443.3,59.5V31c0-4.7-0.7-9-4.5-12.8c-2.4-2.4-5.8-3.8-10-3.8c-3.6,0-7.6,1.4-10.4,4.1v-3.6h-13.3v44.7h13.6
				V32.8c0-5.1,3.7-6.1,5.5-6.1s5.5,1,5.5,6.1v26.7H443.3L443.3,59.5z"/>
			<path class="st2" d="M368.4,42.8c0,2.2-0.3,3.6-1.3,4.5c-1.5,1.4-2.7,1.7-5.4,1.7c-3,0-4.5-1.7-4.5-3.7c0-2.1,1.7-3.6,4.3-3.6
				h6.9C368.4,41.6,368.4,42.8,368.4,42.8z M362.3,14.4c-7.6,0-11.7,1.4-16.3,6l8.5,8.5c2.2-2.2,3.6-3,7.1-3c4.7,0,6.7,1.5,6.7,5.6
				v1.2h-9c-10.6,0-15.2,6.2-15.2,13c0,4.2,1.3,7.9,3.9,10.5c2.5,2.5,6.2,4,10.7,4c4.7,0,7.2-1.3,10-4.1v3.7H382v-29
				C382,19.7,375.1,14.4,362.3,14.4"/>
			<path class="st2" d="M323.6,59.5v-29c0-9-4.6-16.2-14.3-16.2c-3.4,0-7,1.3-9.8,4.1V0.4h-13.6v59.1h13.6V32.5
				c0-4.8,3.5-5.8,5.2-5.8c1.7,0,5.2,1,5.2,5.8v27.1H323.6L323.6,59.5z"/>
			<path class="st2" d="M264.9,44.9c0-7.1-4.1-12.7-13.5-13.6l-6.9-0.7c-3.1-0.3-2.9-2-2.9-2.5c0-1,1.1-2.6,4.4-2.6
				c3.5,0,7.2,0.4,9.5,2.7l8.4-8.4c-4.4-4.4-10.3-5.5-17.6-5.5c-8.9,0-17.8,4.9-17.8,14.8c0,8.7,5.2,12.2,12.9,13l6.9,0.7
				c2.7,0.2,3.2,1.6,3.2,2.8c0,2.3-3.8,2.9-5.8,2.9c-2.3,0-7.1,0-10.9-3.7l-8.8,8.8c6.1,6.2,12.7,6.5,19.4,6.5
				C255.9,60,264.9,55.5,264.9,44.9"/>
			<path class="st2" d="M187.6,44.4c-5,0-5.3-4.3-5.3-8.9c0-4.6,0.3-8.9,5.3-8.9s5.3,4.3,5.3,8.9C192.9,40.1,192.6,44.4,187.6,44.4
				 M193.3,14.9v3.7c-2.7-2.7-5.4-4.1-10-4.1c-4.3,0-8,1.4-10.6,4c-4.1,4.1-4.1,9.1-4.1,17.2c0,8.1,0.1,13.1,4.1,17.2
				c2.6,2.6,6.1,4,10.5,4c4.1,0,7.1-1.2,9.6-3.7v3.2c0,2.9-1.5,6.8-7.2,6.8c-3.1,0-5.6-0.7-7.6-2.8l-8.5,8.5
				c4.6,4.6,9.8,5.8,16.8,5.8c12.2,0,20.2-7.6,20.2-18.2V14.9C206.6,14.9,193.3,14.9,193.3,14.9z"/>
			<path class="st2" d="M146.8,59.5V31c0-4.7-0.7-9-4.5-12.8c-2.4-2.4-5.8-3.8-10.1-3.8c-3.6,0-7.6,1.4-10.4,4.1v-3.6h-13.3v44.7
				h13.6V32.8c0-5.1,3.7-6.1,5.5-6.1c1.8,0,5.5,1,5.5,6.1v26.7H146.8z"/>
			<path class="st3" d="M71.1,16.6h13.6v42.9H71.1V16.6z"/>
			<path class="st3" d="M71.1-0.1h13.6v10.4H71.1V-0.1z"/>
			<path class="st2" d="M29,25.4h-8.2v-12H29c4,0,6.3,2.9,6.3,6C35.3,22.5,33,25.4,29,25.4 M29.7,0.4H6.3v59.1h14.5V38.4h8.9
				c13.1,0,20.2-9.3,20.2-19C49.9,9.7,42.8,0.4,29.7,0.4"/>
			<path class="st2" d="M378,264.7h-11.7l-6.6-10.3h11.7L378,264.7L378,264.7z"/>
			<path class="st2" d="M435.9,321.8v13.3c-3,2.3-6.9,7.1-8.3,10.1l-9.8-0.1v-61.7h9.8v45.8C428.4,328.5,432,324.8,435.9,321.8"/>
			<path class="st2" d="M175.9,262.4v81H166v-3.7h-59.6v-77.2h9.8v67.4h20v-81.1h9.8v81.1h20v-67.4H175.9z"/>
			<path class="st2" d="M435.9,257.5v17.2H426v-7.4h-3.3c-1,5.5-2.1,10-2.2,10.3l-0.5,2.1h-10.1l1.2-4.5c0-0.1,3.4-13.2,3.4-21.4
				v-4.9h9.8v4.9c0,1.2-0.1,2.5-0.2,3.7H435.9L435.9,257.5z"/>
			<path class="st2" d="M77.6,303.5v9.8H57.1v31.8h-9.8v-31.8H26.8v-9.8h20.5v-41.9H29.4v-9.8H75v9.8H57.1v41.9H77.6z"/>
			<path class="st2" d="M75.1,271.6l-5.6,19.8H59.4l5.7-19.8C65.1,271.6,75.1,271.6,75.1,271.6z"/>
			<path class="st2" d="M45.1,291.4H35l-5.6-19.8h10C39.4,271.6,45.1,291.4,45.1,291.4z"/>
			<path class="st2" d="M269.7,250.6l-5.6,9.9h-10.2l5.6-9.9H269.7L269.7,250.6z"/>
			<path class="st2" d="M236,260.4h-10.2l-5.6-9.9h10.2L236,260.4z"/>
			<path class="st2" d="M469.4,258.5h-10.2l-5.6-9.9h10.2L469.4,258.5z"/>
			<path class="st2" d="M449.6,267.3h26.9v7.2h-26.9V267.3z M473.9,331.4h-20.6v-10h20.6V331.4z M469.7,294.1h-16.4v-9.7h16.4V294.1
				z M479.5,304v-29.2h6.8v-17.2h-46.6v17.2h3.8v70.2h9.8v-3.7h20.6v3.7h9.8v-33.3h-30.5V304L479.5,304L479.5,304z"/>
			<path class="st2" d="M250.2,302.7v6.8h29.3v9.8h-26.7c7.1,10.8,26.2,14.7,26.4,14.7l0.3,0.1v10l-2.2-0.4
				c-1.2-0.2-22.3-4.5-32.1-17.9c-9.8,13.4-30.9,17.7-32.1,17.9l-2.2,0.4v-10l0.3-0.1c0.3,0,19.4-3.9,26.5-14.7H211v-9.8h29.3v-6.8
				h-32.1v-9.8h32.1V286h-28.5v-9.8h28.5v-6.8h-29.1v-9.8h68.1v9.8h-29.1v6.8h28.5v9.8h-28.5v6.8h32.1v9.8H250.2L250.2,302.7z"/>
			<path class="st2" d="M386.9,341.7h-11.1c-2.8-5.7-14.8-31.5-20.3-61.2h-2.5v64.7h-9.8v-64.7h-29.6v-9.9h29.6v-22h9.8v22h29.6v9.9
				h-17c6.2,32.8,19.6,58,19.7,58.3L386.9,341.7L386.9,341.7z"/>
			<path class="st2" d="M365.7,280.4c6.2,32.8,19.6,58,19.7,58.3l1.6,3h-11.1c-2.8-5.7-14.8-31.5-20.3-61.2H365.7z"/>
			<path class="st2" d="M330.8,280.4c-6.2,32.8-19.6,58-19.7,58.3l-1.6,3h11.1c2.8-5.7,14.8-31.5,20.3-61.2H330.8z"/>
			<path class="st2" d="M19.7,281.5v36.6l6.1-2v10.4l-25,8.5v-10.4l9.1-3.1v-40H0.8v-9.8h9.1v-22.9h9.8v22.9h6.6v9.8L19.7,281.5
				L19.7,281.5z"/>
		</g>
	</g>
</g>
</svg>
