<svg viewBox="0 0 585 346" version="1.1" xmlns="http://www.w3.org/2000/svg" xml:space="preserve" clip-rule="evenodd"
    stroke-miterlimit="2">
    
    <g fill-rule="evenodd" stroke-linejoin="round" class="nc-icon-wrapper" fill="rgba(237, 237, 237, 1.00)">
        <path id="Artboard14" fill="none" d="M0 0h584.945v345.459H0z" />
        <clipPath id="_clip1">
            <path d="M0 0h584.945v345.459H0z" />
        </clipPath>
        <g clip-path="url(#_clip1)">
            <path
                d="M584.297 170.799v-28.566c0-4.734-1.084-8.971-4.9-12.788-2.413-2.408-6.479-3.825-10.717-3.825-5.15 0-8.717 1.338-12.621 4.734-2.908-3.317-6.475-4.734-10.879-4.734-3.571 0-7.642 1.417-10.379 4.159v-3.655h-13.288v44.675h13.621v-26.737c0-5.154 3.65-6.15 5.479-6.15 1.825 0 5.48.996 5.48 6.15v26.737h13.62v-26.737c0-5.154 3.655-6.15 5.484-6.15 1.825 0 5.479.996 5.479 6.15v26.737h13.621z"
                fill-rule="nonzero" />
            <path
                d="M497.627 170.799v-44.675h-13.621v26.738c0 5.146-3.654 6.142-5.479 6.142-1.825 0-5.479-.996-5.479-6.142v-26.738h-13.621v28.563c0 4.737.663 8.975 4.483 12.792 2.409 2.404 5.817 3.82 10.046 3.82 3.575 0 7.646-1.416 10.388-4.154v3.654h13.283z"
                fill-rule="nonzero" />
            <path
                d="M411.209 143.81c0-1.083.171-2.325.75-3.483.829-1.917 2.654-3.492 5.896-3.492s5.067 1.575 5.896 3.492c.579 1.158.746 2.4.746 3.483h-13.288zm26.742 2.987c0-11.708-7.138-21.175-20.096-21.175-11.708 0-20.012 8.221-20.012 22.838 0 19.267 11.37 22.837 21.258 22.837 8.304 0 12.787-2.491 17.358-7.058l-8.141-8.137c-2.409 2.404-4.484 3.733-9.217 3.733-5.063 0-7.892-3.321-7.892-6.975h26.742v-6.063z"
                fill-rule="nonzero" />
            <path
                d="M378.857 156.184c0-7.142-4.075-12.705-13.454-13.621l-6.896-.667c-3.071-.329-2.904-1.992-2.904-2.487 0-1 1.079-2.571 4.404-2.571 3.487 0 7.221.412 9.466 2.654l8.384-8.388c-4.4-4.4-10.296-5.483-17.604-5.483-8.884 0-17.771 4.9-17.771 14.783 0 8.721 5.233 12.213 12.954 12.955l6.896.666c2.654.25 3.237 1.579 3.237 2.821 0 2.325-3.821 2.908-5.812 2.908-2.325 0-7.142 0-10.879-3.737l-8.809 8.804c6.15 6.142 12.713 6.475 19.438 6.475 10.383 0 19.35-4.567 19.35-15.112"
                fill-rule="nonzero" />
            <path
                d="M320.509 170.799v-44.675h-13.621v26.738c0 5.146-3.654 6.142-5.479 6.142-1.825 0-5.483-.996-5.483-6.142v-26.738h-13.617v28.563c0 4.737.663 8.975 4.484 12.792 2.408 2.404 5.812 3.82 10.045 3.82 3.575 0 7.638-1.416 10.384-4.154v3.654h13.287z"
                fill-rule="nonzero" />
            <path
                d="M258.005 170.799v-59.125h-14.283l-13.284 26.071-13.291-26.071h-14.284v59.125h14.534v-28.316l8.387 14.616h9.304l8.388-14.616v28.316h14.529z"
                fill-rule="nonzero" />
            <path
                d="M147.953 170.799v-11.458h-4.317c-1.825 0-2.742-1-2.742-2.742v-18.266h7.059v-10.467h-7.059v-12.792h-13.616v12.792h-4.071v10.467h4.071v19.262c0 6.146 3.987 13.204 13.866 13.204h6.809z"
                fill-rule="nonzero" />
            <path
                d="M107.543 129.778c-3.075-3.075-6.063-4.159-10.463-4.159-4.65 0-8.55 2.163-10.55 4.159v-3.654H73.251v44.675h13.613v-26.738c0-5.067 3.658-6.146 5.487-6.146 2.321 0 3.563.992 4.896 2.321l10.296-10.458z"
                fill-rule="nonzero" />
            <path
                d="M22.454 149.873l5.317-15.779 4.983 15.779h-10.3zM33 111.677H21.792L.279 170.798h15.2l2.904-8.8h18.192l2.742 8.8h15.191L33 111.677z"
                fill-rule="nonzero" />
            <path
                d="M443.348 59.541V30.974c0-4.737-.662-8.967-4.483-12.792-2.408-2.404-5.812-3.82-10.046-3.82-3.575 0-7.646 1.416-10.383 4.15v-3.65h-13.288v44.679h13.621V32.799c0-5.15 3.654-6.146 5.479-6.146 1.825 0 5.48.996 5.48 6.146v26.742h13.62z"
                fill-rule="nonzero" />
            <path
                d="M368.393 42.766c0 2.158-.333 3.571-1.329 4.483-1.496 1.413-2.742 1.659-5.4 1.659-2.988 0-4.479-1.738-4.479-3.738 0-2.071 1.658-3.566 4.312-3.566h6.896v1.162zm-6.063-28.404c-7.558 0-11.708 1.412-16.279 5.983l8.475 8.467c2.159-2.158 3.65-2.988 7.138-2.988 4.733 0 6.729 1.492 6.729 5.567v1.158h-9.05c-10.633 0-15.196 6.23-15.196 12.955 0 4.154 1.329 7.887 3.9 10.462 2.488 2.496 6.225 3.988 10.708 3.988 4.738 0 7.225-1.33 9.971-4.067v3.654h13.288V30.558c0-10.879-6.896-16.196-19.684-16.196"
                fill-rule="nonzero" />
            <path
                d="M323.581 59.541V30.557c0-9.05-4.65-16.195-14.283-16.195-3.408 0-6.975 1.329-9.8 4.15V.412h-13.617v59.129h13.617V32.466c0-4.817 3.487-5.813 5.229-5.813 1.746 0 5.233.996 5.233 5.813v27.075h13.621z"
                fill-rule="nonzero" />
            <path
                d="M264.902 44.925c0-7.142-4.071-12.704-13.454-13.621l-6.892-.662c-3.075-.334-2.912-1.996-2.912-2.492 0-1 1.083-2.579 4.404-2.579 3.487 0 7.225.421 9.471 2.662l8.387-8.387c-4.404-4.4-10.3-5.484-17.604-5.484-8.887 0-17.771 4.9-17.771 14.784 0 8.721 5.225 12.208 12.95 12.958l6.892.663c2.654.245 3.242 1.575 3.242 2.82 0 2.325-3.821 2.909-5.817 2.909-2.325 0-7.142 0-10.879-3.738l-8.8 8.8c6.146 6.15 12.704 6.479 19.429 6.479 10.383 0 19.354-4.566 19.354-15.112"
                fill-rule="nonzero" />
            <path
                d="M187.617 44.426c-4.983 0-5.312-4.317-5.312-8.883 0-4.571.329-8.888 5.312-8.888 4.983 0 5.317 4.317 5.317 8.888 0 4.566-.334 8.883-5.317 8.883m5.729-29.567v3.655c-2.741-2.738-5.396-4.15-9.962-4.15-4.321 0-7.975 1.412-10.55 3.983-4.067 4.071-4.15 9.054-4.15 17.196 0 8.133.083 13.121 4.15 17.187 2.575 2.571 6.146 3.988 10.466 3.988 4.15 0 7.138-1.25 9.634-3.738v3.242c0 2.9-1.496 6.804-7.225 6.804-3.075 0-5.563-.746-7.642-2.821l-8.471 8.467c4.571 4.571 9.8 5.817 16.779 5.817 12.205 0 20.175-7.642 20.175-18.188V14.859h-13.204z"
                fill-rule="nonzero" />
            <path
                d="M146.795 59.541V30.974c0-4.737-.671-8.967-4.488-12.792-2.404-2.404-5.812-3.82-10.05-3.82-3.567 0-7.637 1.416-10.379 4.15v-3.65H108.59v44.679h13.621V32.799c0-5.15 3.65-6.146 5.479-6.146 1.83 0 5.484.996 5.484 6.146v26.742h13.621z"
                fill-rule="nonzero" />
            <path d="M71.085 16.606h13.621v42.933H71.085z" />
            <path d="M71.085-.09h13.621v10.379H71.085z" />
            <path
                d="M29.013 25.406h-8.22V13.452h8.22c3.992 0 6.317 2.904 6.317 5.975 0 3.075-2.325 5.979-6.317 5.979M29.676.41H6.263v59.129h14.53V38.447h8.883c13.125 0 20.183-9.304 20.183-19.02C49.859 9.714 42.801.41 29.676.41"
                fill-rule="nonzero" />
            <path d="M378.027 264.686h-11.684l-6.591-10.321h11.683l6.592 10.321z" fill-rule="nonzero" />
            <path
                d="M435.855 321.847v13.275c-2.979 2.305-6.854 7.1-8.287 10.134l-9.813-.067v-61.717h9.834v45.809c.8-.75 4.446-4.513 8.266-7.434"
                fill-rule="nonzero" />
            <path
                d="M175.852 262.385v80.975h-9.829v-3.733h-59.638v-77.242h9.833v67.412h19.996v-81.108h9.834v81.108h19.975v-67.412h9.829z"
                fill-rule="nonzero" />
            <path
                d="M435.855 257.514v17.225h-9.833v-7.396h-3.304c-.983 5.5-2.125 9.967-2.213 10.279l-.537 2.08h-10.146l1.163-4.538c.025-.133 3.375-13.204 3.375-21.383v-4.913h9.833v4.913a43.37 43.37 0 0 1-.158 3.733h11.82z"
                fill-rule="nonzero" />
            <path
                d="M77.563 303.496v9.833H57.096v31.838h-9.829v-31.838H26.8v-9.833h20.467v-41.917H29.371v-9.829h45.621v9.829H57.096v41.917h20.467z"
                fill-rule="nonzero" />
            <path d="M75.105 271.591l-5.583 19.775H59.434l5.684-19.775h9.987z" fill-rule="nonzero" />
            <path d="M45.063 291.364H34.955l-5.587-19.775h9.987l5.708 19.775z" fill-rule="nonzero" />
            <path d="M269.655 250.56l-5.584 9.888h-10.212l5.587-9.888h10.209z" fill-rule="nonzero" />
            <path d="M235.961 260.446h-10.233l-5.588-9.887h10.213l5.608 9.887z" fill-rule="nonzero" />
            <path d="M469.415 258.464h-10.234l-5.587-9.887h10.212l5.609 9.887z" fill-rule="nonzero" />
            <path
                d="M449.552 267.343h26.946v7.238h-26.946v-7.238zm24.375 64.017h-20.621v-9.967h20.621v9.967zm-4.221-37.225h-16.4v-9.721h16.4v9.721zm9.829 9.829v-29.225h6.796v-17.225h-46.612v17.225h3.754v70.163h9.833v-3.709h20.621v3.709h9.833v-33.338h-30.454v-7.6h26.229z"
                fill-rule="nonzero" />
            <path
                d="M250.193 302.67v6.817h29.316v9.829h-26.746c7.059 10.837 26.209 14.7 26.43 14.746l.316.066v10.013l-2.166-.425c-1.167-.225-22.28-4.471-32.067-17.896-9.783 13.425-30.9 17.671-32.063 17.896l-2.187.425v-10.013l.312-.066c.313-.046 19.413-3.934 26.455-14.746h-26.746v-9.829h29.316v-6.817h-32.066v-9.829h32.066v-6.834H211.83v-9.829h28.533v-6.833h-29.137v-9.829h68.104v9.829h-29.137v6.833h28.533v9.829h-28.533v6.834h32.062v9.829h-32.062z"
                fill-rule="nonzero" />
            <path
                d="M386.934 341.684h-11.059c-2.816-5.742-14.77-31.488-20.258-61.246h-2.546v64.729h-9.833v-64.729h-29.65v-9.854h29.65v-22.009h9.833v22.009h29.625v9.854h-17.025c6.159 32.75 19.588 58.05 19.7 58.275l1.563 2.971z"
                fill-rule="nonzero" />
            <path
                d="M365.671 280.429c6.158 32.75 19.587 58.05 19.7 58.275l1.562 2.971h-11.058c-2.817-5.742-14.771-31.483-20.258-61.246h10.054z"
                fill-rule="nonzero" />
            <path
                d="M330.767 280.429c-6.158 32.75-19.587 58.05-19.7 58.275l-1.562 2.971h11.058c2.817-5.742 14.771-31.483 20.258-61.246h-10.054z"
                fill-rule="nonzero" />
            <path
                d="M19.713 281.45v36.613l6.075-2.05v10.383L.776 334.863v-10.379l9.112-3.084v-39.95H.776v-9.825h9.112v-22.946h9.825v22.946h6.559v9.825h-6.559z"
                fill-rule="nonzero" />
        </g>
    </g>
</svg>